<svg
      xmlns="http://www.w3.org/2000/svg"
      viewBox="0 0 608.03 430.2"
    >
      <g id="Layer_2" data-name="Layer 2">
        <g id="Layer_1-2" data-name="Layer 1">
          <path
            fill="currentColor"
            d="M370.41,429.88c-.83-.12-1.67-.24-2.5-.34-.65-.07-1.3-.09-1.94-.17a139.34,139.34,0,0,1-60.68-23.23,154.19,154.19,0,0,1-23.82-19.5,127.1,127.1,0,0,1-12.64-15.06,11.23,11.23,0,0,1-.79-1.4c0-.06.07-.18.17-.42,1,.65,2,1.28,2.94,1.93a201,201,0,0,0,61.68,27.54,140.33,140.33,0,0,0,43.9,4.26c22.89-1.51,43.61-8.79,61.36-23.65a104.52,104.52,0,0,0,28.3-37.31A135.24,135.24,0,0,0,472.76,324a166.85,166.85,0,0,0,5.7-27.89c.22-1.95.27-3.92.44-5.88.08-.95.27-1.89.52-3.59.54,1.41.88,2.08,1.06,2.78A124.5,124.5,0,0,1,484,310a127.31,127.31,0,0,1,.08,20.94,113.33,113.33,0,0,1-7.74,33.38,103.18,103.18,0,0,1-76.79,63.43c-2.5.48-5,.84-7.55,1.2-2.35.34-4.69.86-7.05,1.06s-4.88.18-7.32.15c-1.63,0-3.29,0-4.91-.06C372,430.07,371.18,430,370.41,429.88Z"
          />
          <path
            fill="currentColor"
            d="M405.14.08c3.34.08,6.67.23,10,.64a109.56,109.56,0,0,1,13.67,2.64c4.5,1.16,8.93,2.56,13.3,4.13,2.18.78,4.34,1.59,6.49,2.45A117.67,117.67,0,0,1,467,19.22c12.16,7.46,23.48,16,33.24,26.47a128.46,128.46,0,0,1,10.35,12.69,12.88,12.88,0,0,1,.72,1.24c-1.1.35-1.66-.49-2.3-.92a206.83,206.83,0,0,0-44.61-22.63,168.65,168.65,0,0,0-34.9-8.75,132.32,132.32,0,0,0-26.84-.95A112.11,112.11,0,0,0,368,34,100.28,100.28,0,0,0,324.9,67.27,110,110,0,0,0,314,85.13a113.12,113.12,0,0,0-5.9,16,175.53,175.53,0,0,0-6.41,27c-.43,2.81-.67,5.64-1,8.46a34.2,34.2,0,0,1-.9,5.94,9.27,9.27,0,0,1-.82-1.79c-.93-4.27-2-8.52-2.66-12.82a121.32,121.32,0,0,1-1.43-21.88c.37-14.9,3.06-29.35,9.15-43C318.13,31.53,342,11.41,375.61,3A98.26,98.26,0,0,1,389.83.47,102,102,0,0,1,401,0Z"
          />
          <path
            fill="currentColor"
            d="M304.12,35.18c-1.12,1.3-1.95,2.28-2.79,3.24a153.42,153.42,0,0,0-23.78,35.21,129.87,129.87,0,0,0-11.47,35.75,101.63,101.63,0,0,0,5.33,52.54A120.16,120.16,0,0,0,285.92,189a171.46,171.46,0,0,0,34.24,36,290,290,0,0,0,29.33,21c10.31,6.27,19.62,13.91,28.81,21.67,5.26,4.44,10.43,9,15.34,13.83a90.43,90.43,0,0,1,18.29,25.83,57.16,57.16,0,0,1,5.26,17.49,33.53,33.53,0,0,1-4,20.87,47.87,47.87,0,0,1-14.76,16,64.7,64.7,0,0,1-21.46,9.54,105.07,105.07,0,0,1-19.05,3.23,78,78,0,0,1-22.47-2.08,121.88,121.88,0,0,1-14.73-4.46,66.18,66.18,0,0,1-23.93-15.14c-1.57-1.52-3.13-3.05-4.65-4.62a3.24,3.24,0,0,0-2.61-1.11c-.87.05-1.75,0-2.63,0h-90.6A32.64,32.64,0,0,1,193,347a7.84,7.84,0,0,1-7.09-6.66,7.73,7.73,0,0,1,5.19-8.5,8.94,8.94,0,0,1,2.24-.41c1-.07,2,0,2.95,0l130.65,0,24.95,0c.77,0,1.54,0,2.3,0a7.81,7.81,0,0,0,.54-15.58,31,31,0,0,0-3.61-.08H280.2a65.45,65.45,0,0,1-11.78-.68,41.18,41.18,0,0,1-10.61-3.28,26.88,26.88,0,0,1-7.47-5.26c-5.08-5.12-10.25-10.16-15.3-15.32a5.87,5.87,0,0,0-4.59-1.93c-8,.09-16,0-24,0q-34.78,0-69.59,0a18,18,0,0,1-4.22-.38,7.62,7.62,0,0,1-5.77-6.79,7.76,7.76,0,0,1,4.19-7.57,10.21,10.21,0,0,1,3.13-.83,25.62,25.62,0,0,1,3.28-.05H269.14a30.25,30.25,0,0,0,3.93-.1A7.81,7.81,0,0,0,273,258c-1-.09-2,0-2.95,0q-25.93,0-51.87,0a57.65,57.65,0,0,1-9.82-.53A26.15,26.15,0,0,1,193.73,250c-3.75-3.82-7.56-7.59-11.37-11.36a40.42,40.42,0,0,1-7.21-9.3,11.58,11.58,0,0,0-.76-1.11,11,11,0,0,0-3.88-.26H55c-1.2,0-2.4,0-3.61,0a7.76,7.76,0,0,1-1-15.38,21.34,21.34,0,0,1,3.92-.24q17.4,0,34.8,0l92.57,0c12.37,0,24.73.06,37.09.08a27.11,27.11,0,0,0,3.61-.15,7.71,7.71,0,0,0-.17-15.3,29.69,29.69,0,0,0-3.27-.11c-9.63,0-19.26,0-28.89,0-2,0-3.93-.15-5.89-.32a6.68,6.68,0,0,1-2.19-.61,1.88,1.88,0,0,1-.85-3,13.46,13.46,0,0,1,1.86-2.27c2.14-2.19,4.33-4.33,6.48-6.51.52-.52,1-1.1,1.4-1.57-.26-.74-.75-.65-1.15-.66-1.1,0-2.19,0-3.29,0H104.36a27.12,27.12,0,0,1-3.61-.09,7.76,7.76,0,0,1-6.84-6.89,7.64,7.64,0,0,1,5.14-8.22,9.89,9.89,0,0,1,2.56-.45c1.19-.07,2.4,0,3.6,0H242.76a28.94,28.94,0,0,0,3,0,7.81,7.81,0,0,0,.21-15.54,20.84,20.84,0,0,0-2.62-.06c-4.27,0-8.54,0-12.81,0a6.36,6.36,0,0,1-3.5-.66,1.5,1.5,0,0,1-.63-2.21,15,15,0,0,1,1.87-2.26c4.68-4.59,9.35-9.21,14.12-13.71a6.62,6.62,0,0,0,2.3-4.79,122.31,122.31,0,0,1,2.95-20.41c4.8-20.75,14.44-38.8,29.91-53.61A95.34,95.34,0,0,1,300.4,36.5,8.38,8.38,0,0,1,304.12,35.18Z"
          />
          <path
            fill="currentColor"
            d="M475.65,394.2c.78-.9,1.54-1.81,2.33-2.7a151,151,0,0,0,27.29-43A123.64,123.64,0,0,0,514,314.73,101.52,101.52,0,0,0,508,268a122.29,122.29,0,0,0-15.8-29,172.88,172.88,0,0,0-33.9-35,281.65,281.65,0,0,0-28.57-20.33C420.9,178.44,412.89,172,405,165.44q-8.08-6.67-15.85-13.75a94.6,94.6,0,0,1-20.89-27.54,58.53,58.53,0,0,1-6-18.62,33.68,33.68,0,0,1,3.29-20,46.42,46.42,0,0,1,14-16.27A61.74,61.74,0,0,1,401,59c8.68-2.34,17.47-3.93,26.53-3.7a92.22,92.22,0,0,1,24.16,4.2l1.87.59a74.06,74.06,0,0,1,31.52,19.3c26.53,26.67,53.23,53.15,79.86,79.71q15.8,15.75,31.53,31.55a56.76,56.76,0,0,1,4.81,5.37A31.06,31.06,0,0,1,608,215.8a28.22,28.22,0,0,1-3.11,12,42.33,42.33,0,0,1-8.31,11.3Q586.3,249.4,576,259.73q-17.18,17.16-34.35,34.3a67.57,67.57,0,0,1-5,4.73,5.13,5.13,0,0,0-1.92,3.94c-.22,3.05-.49,6.1-.89,9.13-2.81,21-10.27,40.12-23.92,56.57a97.42,97.42,0,0,1-30.65,24.79c-1,.53-2.13,1-3.2,1.51Z"
          />
          <path
            fill="currentColor"
            d="M170.53,331.38a7.83,7.83,0,0,1,7.79,8,7.89,7.89,0,0,1-15.77-.19A7.82,7.82,0,0,1,170.53,331.38Z"
          />
          <path
            fill="currentColor"
            d="M84.12,173.91a7.88,7.88,0,1,1-8-7.78A7.75,7.75,0,0,1,84.12,173.91Z"
          />
          <path
            fill="currentColor"
            d="M116.21,281.35a7.87,7.87,0,0,1-15.74.43,7.87,7.87,0,1,1,15.74-.43Z"
          />
          <path
            fill="currentColor"
            d="M34.88,220a7.7,7.7,0,0,1-7.79,8,7.77,7.77,0,0,1-7.95-7.83A7.87,7.87,0,0,1,34.88,220Z"
          />
          <path
            fill="currentColor"
            d="M6.54,214a6.13,6.13,0,0,1,6.35,6.13,6.31,6.31,0,0,1-6.16,6.38c-3.37.07-6.8-3.17-6.73-6.35S3.24,214,6.54,214Z"
          />
          <path
            fill="currentColor"
            d="M143.76,339.09A6.19,6.19,0,0,1,150,332.9a6.33,6.33,0,0,1,6.25,6.58,6.24,6.24,0,0,1-6.48,6A6.15,6.15,0,0,1,143.76,339.09Z"
          />
        </g>
      </g>
    </svg>